<svg width="28" height="24" viewBox="0 0 28 24" fill="none" xmlns="http://www.w3.org/2000/svg">
<g clip-path="url(#clip0_89_411)">
<path d="M24.8574 22.2857H2.57167C1.14882 22.2857 0.000244141 21.1372 0.000244141 19.7143V4.28572C0.000244141 2.86287 1.14882 1.71429 2.57167 1.71429H24.8574C26.2802 1.71429 27.4288 2.86287 27.4288 4.28572V19.7143C27.4288 21.1372 26.2802 22.2857 24.8574 22.2857ZM2.57167 3.42858C2.09167 3.42858 1.71453 3.80572 1.71453 4.28572V19.7143C1.71453 20.1943 2.09167 20.5714 2.57167 20.5714H24.8574C25.3374 20.5714 25.7145 20.1943 25.7145 19.7143V4.28572C25.7145 3.80572 25.3374 3.42858 24.8574 3.42858H2.57167Z" fill="white"/>
<path d="M13.7145 15.36C12.5145 15.36 11.4174 14.88 10.5945 14.0057L1.59454 4.44001C1.26882 4.09715 1.28597 3.54858 1.62882 3.22286C1.97168 2.89715 2.52025 2.91429 2.84597 3.25715L11.846 12.8229C12.8231 13.8686 14.606 13.8686 15.5831 12.8229L24.5831 3.27429C24.9088 2.93144 25.4574 2.91429 25.8003 3.24001C26.1431 3.56572 26.1603 4.11429 25.8345 4.45715L16.8345 14.0229C16.0117 14.8972 14.9145 15.3771 13.7145 15.3771V15.36Z" fill="white"/>
</g>
<defs>
<clipPath id="clip0_89_411">
<rect width="27.429" height="24" fill="white"/>
</clipPath>
</defs>
</svg>
