<svg width="33" height="32" viewBox="0 0 33 32" fill="none" xmlns="http://www.w3.org/2000/svg">
<g id="iconamoon:search-bold">
<path id="Vector" d="M28.5 28L22.7094 22.2093M22.7094 22.2093C23.6999 21.2188 24.4856 20.0429 25.0217 18.7487C25.5577 17.4546 25.8336 16.0675 25.8336 14.6667C25.8336 13.2659 25.5577 11.8788 25.0217 10.5846C24.4856 9.29043 23.6999 8.11452 22.7094 7.124C21.7188 6.13348 20.5429 5.34776 19.2488 4.8117C17.9546 4.27563 16.5675 3.99973 15.1667 3.99973C13.7659 3.99973 12.3788 4.27563 11.0846 4.8117C9.79046 5.34776 8.61455 6.13348 7.62403 7.124C5.62359 9.12444 4.49976 11.8376 4.49976 14.6667C4.49976 17.4957 5.62359 20.2089 7.62403 22.2093C9.62447 24.2098 12.3376 25.3336 15.1667 25.3336C17.9957 25.3336 20.7089 24.2098 22.7094 22.2093Z" stroke="white" stroke-opacity="0.75" stroke-width="4" stroke-linecap="round" stroke-linejoin="round"/>
</g>
</svg>
