<svg width="32" height="32" viewBox="0 0 32 32" fill="none" xmlns="http://www.w3.org/2000/svg">
<g id="mingcute:paper-fill" clip-path="url(#clip0_89_402)">
<g id="Group">
<path id="Vector" d="M21.3333 4C22.3536 3.99994 23.3353 4.38977 24.0776 5.08971C24.82 5.78966 25.2668 6.74681 25.3266 7.76533L25.3333 8V21.3333H26.3333C27.196 21.3333 27.9066 21.9893 27.992 22.8293L28 23V25.3333C28 26.3536 27.6102 27.3354 26.9102 28.0777C26.2103 28.82 25.2532 29.2668 24.2346 29.3267L24 29.3333H10.6666C9.64635 29.3334 8.66461 28.9436 7.92228 28.2436C7.17995 27.5437 6.73315 26.5865 6.67329 25.568L6.66663 25.3333V12H4.33329C3.92068 12.0002 3.52267 11.8473 3.21627 11.571C2.90987 11.2946 2.71688 10.9144 2.67463 10.504L2.66663 10.3333V8C2.66657 6.97972 3.05639 5.99798 3.75634 5.25565C4.45628 4.51332 5.41344 4.06652 6.43196 4.00667L6.66663 4H21.3333ZM25.3333 24H13.3333V25.3333C13.3333 25.8 13.2533 26.2493 13.1066 26.6667H24C24.3536 26.6667 24.6927 26.5262 24.9428 26.2761C25.1928 26.0261 25.3333 25.687 25.3333 25.3333V24ZM16 16H13.3333C12.9935 16.0004 12.6666 16.1305 12.4195 16.3638C12.1724 16.5971 12.0236 16.9159 12.0037 17.2552C11.9838 17.5944 12.0942 17.9285 12.3123 18.1891C12.5304 18.4497 12.8398 18.6172 13.1773 18.6573L13.3333 18.6667H16C16.3398 18.6663 16.6667 18.5362 16.9138 18.3029C17.1609 18.0696 17.3096 17.7507 17.3295 17.4115C17.3494 17.0722 17.2391 16.7382 17.0209 16.4776C16.8028 16.217 16.4934 16.0495 16.156 16.0093L16 16ZM18.6666 10.6667H13.3333C12.9797 10.6667 12.6405 10.8071 12.3905 11.0572C12.1404 11.3072 12 11.6464 12 12C12 12.3536 12.1404 12.6928 12.3905 12.9428C12.6405 13.1929 12.9797 13.3333 13.3333 13.3333H18.6666C19.0202 13.3333 19.3594 13.1929 19.6094 12.9428C19.8595 12.6928 20 12.3536 20 12C20 11.6464 19.8595 11.3072 19.6094 11.0572C19.3594 10.8071 19.0202 10.6667 18.6666 10.6667ZM6.66663 6.66667C6.313 6.66667 5.97387 6.80714 5.72382 7.05719C5.47377 7.30724 5.33329 7.64638 5.33329 8V9.33333H6.66663V6.66667Z" fill="white" fill-opacity="0.75"/>
</g>
</g>
<defs>
<clipPath id="clip0_89_402">
<rect width="32" height="32" fill="white"/>
</clipPath>
</defs>
</svg>
