<svg width="25" height="24" viewBox="0 0 25 24" fill="none" xmlns="http://www.w3.org/2000/svg">
<g id="bi:telephone" clip-path="url(#clip0_89_416)">
<path id="Vector" d="M5.90993 1.99202C5.82138 1.87811 5.70961 1.78434 5.58203 1.71695C5.45446 1.64956 5.31401 1.61009 5.17001 1.60115C5.02601 1.59221 4.88175 1.61401 4.74682 1.66511C4.6119 1.71621 4.48939 1.79543 4.38743 1.89752L2.83643 3.45002C2.11193 4.17601 1.84493 5.20352 2.16143 6.10502C3.47504 9.8364 5.61187 13.2242 8.41343 16.017C11.2063 18.8185 14.5941 20.9554 18.3254 22.269C19.2269 22.5855 20.2544 22.3185 20.9804 21.594L22.5314 20.043C22.6335 19.9411 22.7127 19.8185 22.7638 19.6836C22.8149 19.5487 22.8367 19.4044 22.8278 19.2604C22.8189 19.1164 22.7794 18.976 22.712 18.8484C22.6446 18.7208 22.5508 18.6091 22.4369 18.5205L18.9764 15.8295C18.8547 15.7351 18.7132 15.6696 18.5625 15.6379C18.4118 15.6062 18.2558 15.6092 18.1064 15.6465L14.8214 16.467C14.3829 16.5766 13.9236 16.5708 13.488 16.4501C13.0524 16.3295 12.6555 16.0981 12.3359 15.7785L8.65193 12.093C8.33208 11.7736 8.10042 11.3767 7.9795 10.9412C7.85858 10.5056 7.85253 10.0461 7.96193 9.60752L8.78393 6.32252C8.82129 6.17311 8.82423 6.01717 8.79253 5.86646C8.76083 5.71575 8.69531 5.57421 8.60093 5.45252L5.90993 1.99202ZM3.25493 0.766515C3.51742 0.503939 3.83277 0.300211 4.18004 0.168857C4.52731 0.0375034 4.89854 -0.0184696 5.2691 0.00465481C5.63966 0.0277792 6.00106 0.129472 6.3293 0.30298C6.65754 0.476489 6.94512 0.717843 7.17293 1.01102L9.86393 4.47002C10.3574 5.10452 10.5314 5.93102 10.3364 6.71102L9.51593 9.99602C9.47351 10.1662 9.4758 10.3444 9.52258 10.5134C9.56937 10.6824 9.65905 10.8364 9.78293 10.9605L13.4684 14.646C13.5927 14.7701 13.747 14.86 13.9163 14.9068C14.0855 14.9536 14.2641 14.9557 14.4344 14.913L17.7179 14.0925C18.1028 13.9963 18.5046 13.9888 18.8928 14.0707C19.2811 14.1525 19.6456 14.3216 19.9589 14.565L23.4179 17.256C24.6614 18.2235 24.7754 20.061 23.6624 21.1725L22.1114 22.7235C21.0014 23.8335 19.3424 24.321 17.7959 23.7765C13.8377 22.3838 10.2438 20.1178 7.28093 17.1465C4.30986 14.184 2.04384 10.5907 0.650929 6.63302C0.107929 5.08802 0.595429 3.42752 1.70543 2.31752L3.25643 0.766515H3.25493Z" fill="white"/>
</g>
<defs>
<clipPath id="clip0_89_416">
<rect width="24" height="24" fill="white" transform="translate(0.428955)"/>
</clipPath>
</defs>
</svg>
