<?xml version="1.0" encoding="UTF-8"?>
<!DOCTYPE svg PUBLIC "-//W3C//DTD SVG 1.1//EN" "http://www.w3.org/Graphics/SVG/1.1/DTD/svg11.dtd">
<!-- Creator: CorelDRAW 2020 (64-Bit) -->
<svg xmlns="http://www.w3.org/2000/svg" xml:space="preserve" width="867px" height="846px" version="1.1" style="shape-rendering:geometricPrecision; text-rendering:geometricPrecision; image-rendering:optimizeQuality; fill-rule:evenodd; clip-rule:evenodd"
viewBox="0 0 867 846.16"
 xmlns:xlink="http://www.w3.org/1999/xlink"
 xmlns:xodm="http://www.corel.com/coreldraw/odm/2003">
 <defs>
  <style type="text/css">
   <![CDATA[
    .fil0 {fill:#282828;fill-rule:nonzero}
   ]]>
  </style>
 </defs>
 <g id="Layer_x0020_1">
  <metadata id="CorelCorpID_0Corel-Layer"/>
  <path class="fil0" d="M251.52 636.04c13.02,0 23.58,10.82 23.58,24.16 0,13.27 -10.56,24.1 -23.58,24.1 -12.94,0 -23.51,-10.83 -23.51,-24.1 0,-13.34 10.57,-24.16 23.51,-24.16zm618.4 -585.84l0 -2.95c-0.26,-9.14 -2.96,-18.18 -8.03,-26.1 -9.08,-14.26 -24.48,-22.8 -41.07,-22.8l-158.74 0c-19.65,0 -37.35,11.97 -45.16,30.5l-139.55 332.18c-2.53,-0.53 -5.13,-0.76 -7.81,-0.76 -25.3,0 -45.83,21.12 -45.83,47.04 0,25.92 20.53,47.04 45.83,47.04 25.29,0 45.89,-21.12 45.89,-47.04 0,-15.02 -6.92,-28.36 -17.62,-36.98l139.62 -332.48c4.24,-10.07 13.91,-16.63 24.63,-16.63l158.74 0c9.15,0 17.33,4.58 22.39,12.43 5.06,7.93 5.8,17.46 2.16,26.08l-318.98 747.09c-4.39,10.21 -13.46,16.31 -24.4,16.46l-0.23 0c-10.78,0 -19.85,-6.02 -24.32,-16.08l-227.11 -508.76c-7.96,-17.84 -25.44,-29.43 -44.63,-29.43l-156.59 0c-16.66,0 -32.06,8.54 -41.14,22.87 -9.07,14.34 -10.49,32.18 -3.79,47.8l130.4 302.84c7.89,18.22 25.52,30.03 44.93,30.03l27.9 0c5.2,19.98 22.98,34.62 44.11,34.62 25.29,0 45.9,-21.04 45.9,-46.97 0,-25.92 -20.61,-47.03 -45.9,-47.03 -21.72,0 -40.02,15.62 -44.56,36.51l-27.45 0c-10.56,0 -20.23,-6.4 -24.47,-16.39l-130.4 -302.83c-3.8,-8.62 -2.98,-18.15 2,-26.07 5.06,-7.94 13.24,-12.51 22.47,-12.51l156.59 0c10.49,0 20.01,6.33 24.4,16.09l227.03 508.76c8.11,18.14 25.14,29.43 44.63,29.43l0.02 0 0.01 0 0.02 0 0.01 0 0.01 0 0.02 0c0.12,0 0.24,-0.02 0.36,-0.08 19.64,-0.15 36.68,-11.66 44.56,-30.11l319.05 -747.09c2.56,-5.99 3.91,-12.33 4.1,-18.68zm-400.36 381.28c-12.95,0 -23.51,-10.83 -23.51,-24.17 0,-13.34 10.56,-24.17 23.51,-24.17 13.02,0 23.58,10.83 23.58,24.17 0,13.34 -10.56,24.17 -23.58,24.17z"/>
 </g>
</svg>
