<svg width="33" height="32" viewBox="0 0 33 32" fill="none" xmlns="http://www.w3.org/2000/svg">
<g id="mdi:web">
<path id="Vector" d="M22.3133 18.6667C22.42 17.7867 22.5 16.9067 22.5 16C22.5 15.0933 22.42 14.2133 22.3133 13.3333H26.82C27.0333 14.1867 27.1666 15.08 27.1666 16C27.1666 16.92 27.0333 17.8133 26.82 18.6667M19.9533 26.08C20.7533 24.6 21.3666 23 21.7933 21.3333H25.7266C24.4349 23.5577 22.3854 25.2427 19.9533 26.08ZM19.62 18.6667H13.38C13.2466 17.7867 13.1666 16.9067 13.1666 16C13.1666 15.0933 13.2466 14.2 13.38 13.3333H19.62C19.74 14.2 19.8333 15.0933 19.8333 16C19.8333 16.9067 19.74 17.7867 19.62 18.6667ZM16.5 26.6133C15.3933 25.0133 14.5 23.24 13.9533 21.3333H19.0466C18.5 23.24 17.6066 25.0133 16.5 26.6133ZM11.1666 10.6667H7.27329C8.55177 8.43628 10.5997 6.74865 13.0333 5.92C12.2333 7.4 11.6333 9 11.1666 10.6667ZM7.27329 21.3333H11.1666C11.6333 23 12.2333 24.6 13.0333 26.08C10.6048 25.2422 8.55975 23.557 7.27329 21.3333ZM6.17996 18.6667C5.96663 17.8133 5.83329 16.92 5.83329 16C5.83329 15.08 5.96663 14.1867 6.17996 13.3333H10.6866C10.58 14.2133 10.5 15.0933 10.5 16C10.5 16.9067 10.58 17.7867 10.6866 18.6667M16.5 5.37333C17.6066 6.97333 18.5 8.76 19.0466 10.6667H13.9533C14.5 8.76 15.3933 6.97333 16.5 5.37333ZM25.7266 10.6667H21.7933C21.376 9.01527 20.7581 7.42119 19.9533 5.92C22.4066 6.76 24.4466 8.45333 25.7266 10.6667ZM16.5 2.66666C9.12663 2.66666 3.16663 8.66666 3.16663 16C3.16663 19.5362 4.57138 22.9276 7.07187 25.4281C8.30998 26.6662 9.77984 27.6483 11.3975 28.3184C13.0152 28.9885 14.749 29.3333 16.5 29.3333C20.0362 29.3333 23.4276 27.9286 25.928 25.4281C28.4285 22.9276 29.8333 19.5362 29.8333 16C29.8333 14.249 29.4884 12.5152 28.8184 10.8976C28.1483 9.27988 27.1662 7.81002 25.928 6.57191C24.6899 5.33379 23.2201 4.35167 21.6024 3.6816C19.9847 3.01154 18.2509 2.66666 16.5 2.66666Z" fill="white" fill-opacity="0.75"/>
</g>
</svg>
